<svg width="64" height="64" viewBox="0 0 64 64" fill="none" xmlns="http://www.w3.org/2000/svg">
<path d="M18.6666 26.6666V58.6666V26.6666Z" fill="#44A2A0"/>
<path d="M39.9999 15.68L37.3333 26.6666H52.8799C53.7079 26.6666 54.5245 26.8594 55.2651 27.2297C56.0056 27.6 56.6498 28.1376 57.1466 28.8C57.6434 29.4624 57.9791 30.2313 58.1272 31.0459C58.2753 31.8605 58.2318 32.6985 57.9999 33.4933L51.7866 54.8266C51.4635 55.9345 50.7898 56.9076 49.8666 57.6C48.9434 58.2924 47.8206 58.6666 46.6666 58.6666H10.6666C9.2521 58.6666 7.89554 58.1047 6.89535 57.1045C5.89515 56.1044 5.33325 54.7478 5.33325 53.3333V32C5.33325 30.5855 5.89515 29.2289 6.89535 28.2287C7.89554 27.2285 9.2521 26.6666 10.6666 26.6666H18.0266C19.0188 26.6661 19.9912 26.3888 20.8345 25.8659C21.6777 25.343 22.3584 24.5952 22.7999 23.7066L31.9999 5.33331C33.2575 5.34889 34.4952 5.64843 35.6207 6.20957C36.7462 6.77071 37.7304 7.57893 38.4997 8.57385C39.2689 9.56878 39.8034 10.7247 40.0632 11.9552C40.323 13.1857 40.3014 14.459 39.9999 15.68Z" fill="#44A2A0"/>
<path d="M18.6666 26.6666V58.6666M39.9999 15.68L37.3333 26.6666H52.8799C53.7079 26.6666 54.5245 26.8594 55.2651 27.2297C56.0056 27.6 56.6498 28.1376 57.1466 28.8C57.6434 29.4624 57.9791 30.2313 58.1272 31.0459C58.2753 31.8605 58.2318 32.6985 57.9999 33.4933L51.7866 54.8266C51.4635 55.9345 50.7898 56.9076 49.8666 57.6C48.9434 58.2924 47.8206 58.6666 46.6666 58.6666H10.6666C9.2521 58.6666 7.89554 58.1047 6.89535 57.1045C5.89515 56.1044 5.33325 54.7478 5.33325 53.3333V32C5.33325 30.5855 5.89515 29.2289 6.89535 28.2287C7.89554 27.2285 9.2521 26.6666 10.6666 26.6666H18.0266C19.0188 26.6661 19.9912 26.3888 20.8345 25.8659C21.6777 25.343 22.3584 24.5952 22.7999 23.7066L31.9999 5.33331C33.2575 5.34889 34.4952 5.64843 35.6207 6.20957C36.7462 6.77071 37.7304 7.57893 38.4997 8.57385C39.2689 9.56878 39.8034 10.7247 40.0632 11.9552C40.323 13.1857 40.3014 14.459 39.9999 15.68Z" stroke="#0A0A0A" stroke-width="5" stroke-linecap="round" stroke-linejoin="round"/>
</svg>
