<svg width="116" height="142" viewBox="0 0 116 142" fill="none" xmlns="http://www.w3.org/2000/svg">
<path d="M93.7639 33.4321L89.2553 14.9207C88.3444 11.181 83.7269 9.82967 80.9436 12.4883L67.1666 25.6486L53.3895 38.8089C50.6063 41.4675 51.7448 46.1421 55.4389 47.2231L73.7245 52.5743L92.0102 57.9254C95.7042 59.0065 99.1833 55.6832 98.2725 51.9435L93.7639 33.4321Z" fill="#0A0A0A" stroke="#0A0A0A" stroke-width="2"/>
<path d="M21.6728 33.4321L26.1814 14.9207C27.0922 11.181 31.7098 9.82967 34.493 12.4883L48.2701 25.6486L62.0471 38.8089C64.8304 41.4675 63.6918 46.1421 59.9978 47.2231L41.7121 52.5743L23.4265 57.9254C19.7324 59.0065 16.2533 55.6832 17.1642 51.9435L21.6728 33.4321Z" fill="#0A0A0A" stroke="#0A0A0A" stroke-width="2"/>
<path d="M83.5202 16.9846C84.0768 16.4529 85.0003 16.7231 85.1825 17.471L89.7258 36.1248L94.269 54.7785C94.4512 55.5264 93.7554 56.1911 93.0166 55.9749L74.5903 50.5826L56.1641 45.1903C55.4253 44.9741 55.1976 44.0392 55.7543 43.5074L69.6372 30.246L83.5202 16.9846Z" fill="#F9627D"/>
<path d="M32.4487 16.9846C31.8921 16.4529 30.9685 16.7231 30.7864 17.471L26.2431 36.1248L21.6999 54.7785C21.5177 55.5264 22.2135 56.1911 22.9523 55.9749L41.3785 50.5826L59.8047 45.1903C60.5436 44.9741 60.7713 44.0392 60.2146 43.5074L46.3317 30.246L32.4487 16.9846Z" fill="#F9627D"/>
<path d="M4.2 87.5C4.2 79.7 5.45 72.55 7.95 66.05C10.55 59.45 14.15 53.75 18.75 48.95C23.45 44.15 29.05 40.45 35.55 37.85C42.05 35.25 49.2 33.95 57 33.95C68.8 33.95 78.9 36.9 87.3 42.8C95.7 48.6 101.7 56.6 105.3 66.8L82.65 71.75C80.85 68.05 78.7 65.05 76.2 62.75C73.7 60.35 70.85 58.6 67.65 57.5C64.45 56.4 60.9 55.85 57 55.85C51.4 55.85 46.6 57.25 42.6 60.05C38.6 62.85 35.55 66.65 33.45 71.45C31.35 76.15 30.3 81.5 30.3 87.5C30.3 93.6 31.35 99.05 33.45 103.85C35.55 108.55 38.6 112.3 42.6 115.1C46.6 117.8 51.4 119.15 57 119.15C60.9 119.15 64.55 118.6 67.95 117.5C71.35 116.3 74.4 114.4 77.1 111.8C79.8 109.1 82.1 105.6 84 101.3L106.05 105.8C102.45 117 96.4 125.7 87.9 131.9C79.4 138 69.1 141.05 57 141.05C49.2 141.05 42.05 139.75 35.55 137.15C29.05 134.55 23.45 130.9 18.75 126.2C14.15 121.4 10.55 115.75 7.95 109.25C5.45 102.65 4.2 95.4 4.2 87.5Z" fill="#0A0A0A"/>
</svg>
