<svg width="779" height="234" viewBox="0 0 779 234" fill="none" xmlns="http://www.w3.org/2000/svg">
<path d="M137.215 1.96919C141.16 -1.8027 147.706 0.114433 148.997 5.42003L164.976 71.0768C166.267 76.3824 161.335 81.0973 156.099 79.5636L91.2936 60.584C86.0569 59.0503 84.4429 52.4183 88.3884 48.6464L137.215 1.96919Z" fill="#0A0A0A"/>
<path d="M52.4556 1.96919C48.5101 -1.8027 41.9641 0.114433 40.6729 5.42003L24.6943 71.0768C23.4031 76.3824 28.3351 81.0973 33.5719 79.5636L98.3767 60.584C103.613 59.0503 105.227 52.4183 101.282 48.6464L52.4556 1.96919Z" fill="#0A0A0A"/>
<path d="M140.556 8.66056C141.543 7.71759 143.179 8.19687 143.502 9.52327L159.604 75.6847C159.926 77.0111 158.693 78.1898 157.384 77.8064L92.0812 58.6809C90.772 58.2975 90.3685 56.6395 91.3549 55.6965L140.556 8.66056Z" fill="#F9627D"/>
<path d="M50.0571 8.66056C49.0707 7.71759 47.4342 8.19687 47.1114 9.52327L31.01 75.6847C30.6872 77.0111 31.9202 78.1898 33.2294 77.8064L98.5324 58.6809C99.8416 58.2975 100.245 56.6395 99.2587 55.6965L50.0571 8.66056Z" fill="#F9627D"/>
<path d="M384.527 139.034C384.527 125.201 386.742 112.521 391.172 100.994C395.779 89.2895 402.158 79.1811 410.31 70.6687C418.638 62.1563 428.561 55.5947 440.08 50.9838C451.598 46.3729 464.268 44.0675 478.089 44.0675C498.999 44.0675 516.896 49.2991 531.781 59.7622C546.666 70.048 557.298 84.2353 563.677 102.324L523.541 111.102C520.352 104.541 516.542 99.2206 512.112 95.1418C507.682 90.8856 502.632 87.7821 496.961 85.8314C491.291 83.8806 485 82.9052 478.089 82.9052C468.166 82.9052 459.66 85.388 452.572 90.3536C445.484 95.3191 440.08 102.058 436.358 110.57C432.637 118.906 430.776 128.393 430.776 139.034C430.776 149.852 432.637 159.517 436.358 168.029C440.08 176.364 445.484 183.014 452.572 187.98C459.66 192.768 468.166 195.162 478.089 195.162C485 195.162 491.468 194.187 497.493 192.236C503.518 190.108 508.922 186.739 513.707 182.128C518.491 177.339 522.567 171.133 525.934 163.507L565.007 171.487C558.627 191.349 547.907 206.778 532.844 217.773C517.782 228.591 499.531 234 478.089 234C464.268 234 451.598 231.695 440.08 227.084C428.561 222.473 418.638 216 410.31 207.665C402.158 199.152 395.779 189.133 391.172 177.605C386.742 165.901 384.527 153.044 384.527 139.034Z" fill="#F9627D"/>
<path d="M642.398 232.138L639.475 215.645C634.69 221.143 629.729 225.576 624.59 228.946C619.628 232.315 612.895 234 604.389 234C596.592 234 589.415 232.581 582.859 229.744C576.48 226.729 571.341 222.384 567.442 216.709C563.544 211.034 561.595 204.118 561.595 195.96C561.595 184.965 565.493 175.921 573.29 168.827C581.087 161.733 593.402 157.211 610.236 155.26L639.475 152.068V144.354C639.475 141.871 638.234 139.388 635.753 136.906C633.273 134.246 629.463 132.915 624.324 132.915C619.717 132.915 615.73 134.157 612.363 136.64C608.996 139.122 606.693 142.581 605.452 147.014L568.506 133.714C572.581 121.654 579.492 112.61 589.238 106.58C598.984 100.373 611.211 97.2699 625.919 97.2699C644.525 97.2699 658.701 101.881 668.447 111.102C678.193 120.324 683.066 133.004 683.066 149.142V232.138H642.398ZM639.475 176.541L618.742 178.936C614.667 179.468 611.565 180.798 609.439 182.926C607.313 185.054 606.249 187.625 606.249 190.64C606.249 193.655 607.49 196.138 609.971 198.088C612.629 200.039 616.261 201.015 620.869 201.015C624.59 201.015 627.779 200.216 630.437 198.62C633.273 196.847 635.488 194.364 637.083 191.172C638.677 187.98 639.475 183.99 639.475 179.202V176.541Z" fill="#F9627D"/>
<path d="M686.848 40.6093H730.439V232.138H686.848V40.6093Z" fill="#F9627D"/>
<path d="M735.408 40.6093H779V232.138H735.408V40.6093Z" fill="#F9627D"/>
<path d="M0 133.714C0 119.881 2.21502 107.201 6.64505 95.6738C11.2523 83.9693 17.6315 73.8608 25.7828 65.3484C34.1113 56.836 44.0345 50.2744 55.5526 45.6635C67.0707 41.0527 79.7406 38.7472 93.5623 38.7472C114.472 38.7472 132.369 43.9788 147.254 54.442C162.139 64.7277 172.771 78.915 179.151 97.0039L139.014 105.782C135.825 99.2206 132.015 93.9004 127.585 89.8215C123.155 85.5653 118.105 82.4619 112.434 80.5111C106.764 78.5604 100.473 77.585 93.5623 77.585C83.639 77.585 75.1334 80.0678 68.0453 85.0333C60.9573 89.9989 55.5526 96.7379 51.8314 105.25C48.1102 113.585 46.2496 123.073 46.2496 133.714C46.2496 144.531 48.1102 154.196 51.8314 162.709C55.5526 171.044 60.9573 177.694 68.0453 182.66C75.1334 187.448 83.639 189.842 93.5623 189.842C100.473 189.842 106.941 188.867 112.966 186.916C118.991 184.788 124.395 181.418 129.18 176.807C133.964 172.019 138.04 165.812 141.407 158.187L180.48 166.167C174.1 186.029 163.38 201.458 148.318 212.453C133.255 223.271 115.004 228.68 93.5623 228.68C79.7406 228.68 67.0707 226.374 55.5526 221.763C44.0345 217.153 34.1113 210.68 25.7828 202.345C17.6315 193.832 11.2523 183.812 6.64505 172.285C2.21502 160.581 0 147.723 0 133.714Z" fill="#0A0A0A"/>
<path d="M257.872 226.818L254.948 210.325C250.163 215.823 245.202 220.256 240.063 223.626C235.101 226.995 228.368 228.68 219.862 228.68C212.065 228.68 204.888 227.261 198.332 224.424C191.953 221.409 186.814 217.064 182.915 211.389C179.017 205.714 177.068 198.798 177.068 190.64C177.068 179.645 180.966 170.6 188.763 163.507C196.56 156.413 208.875 151.891 225.71 149.94L254.948 146.748V139.034C254.948 136.551 253.707 134.068 251.227 131.585C248.746 128.925 244.936 127.595 239.797 127.595C235.19 127.595 231.203 128.837 227.836 131.319C224.469 133.802 222.166 137.26 220.925 141.694L183.979 128.393C188.054 116.334 194.965 107.29 204.711 101.26C214.457 95.0531 226.684 91.9496 241.392 91.9496C259.998 91.9496 274.174 96.5605 283.92 105.782C293.666 115.004 298.539 127.684 298.539 143.822V226.818H257.872ZM254.948 171.221L234.215 173.615C230.14 174.147 227.039 175.477 224.912 177.605C222.786 179.734 221.723 182.305 221.723 185.32C221.723 188.335 222.963 190.817 225.444 192.768C228.102 194.719 231.734 195.694 236.342 195.694C240.063 195.694 243.252 194.896 245.91 193.3C248.746 191.527 250.961 189.044 252.556 185.852C254.15 182.66 254.948 178.67 254.948 173.881V171.221Z" fill="#0A0A0A"/>
<path d="M313.75 93.8117V56.57H358.139V93.8117H383.39V132.649H358.139V174.147C358.139 179.113 359.468 182.66 362.126 184.788C364.784 186.916 368.062 188.069 371.961 188.246C375.859 188.246 379.758 187.803 383.656 186.916V225.222C373.733 226.995 364.518 227.527 356.013 226.818C347.507 226.108 340.065 223.892 333.685 220.167C327.483 216.266 322.61 210.591 319.066 203.143C315.522 195.517 313.75 185.852 313.75 174.147V132.649H294.878V93.8117H313.75Z" fill="#0A0A0A"/>
</svg>
