<svg width="248" height="80" viewBox="0 0 248 80" fill="none" xmlns="http://www.w3.org/2000/svg">
<mask id="path-1-outside-1_2_1283" maskUnits="userSpaceOnUse" x="0" y="-1" width="248" height="81" fill="black">
<rect fill="white" y="-1" width="248" height="81"/>
<path d="M46.2741 4.6059C47.4897 3.44532 49.5064 4.03521 49.9042 5.6677L54.827 25.8698C55.2248 27.5023 53.7053 28.953 52.092 28.4811L32.1264 22.6412C30.513 22.1693 30.0158 20.1287 31.2314 18.9681L46.2741 4.6059Z"/>
<path d="M20.1609 4.6059C18.9453 3.44532 16.9286 4.03521 16.5308 5.6677L11.608 25.8698C11.2102 27.5023 12.7297 28.953 14.3431 28.4811L34.3086 22.6412C35.922 22.1693 36.4192 20.1287 35.2037 18.9681L20.1609 4.6059Z"/>
<path d="M47.3036 6.66479C47.6075 6.37464 48.1117 6.52211 48.2112 6.93024L53.1718 27.2876C53.2713 27.6957 52.8914 28.0584 52.4881 27.9404L32.369 22.0557C31.9657 21.9377 31.8414 21.4275 32.1453 21.1374L47.3036 6.66479Z"/>
<path d="M19.422 6.66479C19.1181 6.37464 18.6139 6.52211 18.5144 6.93024L13.5538 27.2876C13.4543 27.6957 13.8342 28.0584 14.2375 27.9404L34.3566 22.0557C34.7599 21.9377 34.8842 21.4275 34.5803 21.1374L19.422 6.66479Z"/>
<path d="M122.468 46.7796C122.468 42.5234 123.15 38.6219 124.515 35.0751C125.935 31.4737 127.9 28.3634 130.411 25.7442C132.977 23.125 136.034 21.1061 139.583 19.6873C143.132 18.2686 147.035 17.5592 151.293 17.5592C157.735 17.5592 163.249 19.1689 167.835 22.3884C172.421 25.5532 175.697 29.9185 177.662 35.4843L165.296 38.1854C164.314 36.1664 163.14 34.5294 161.775 33.2744C160.41 31.9648 158.854 31.0099 157.107 30.4097C155.36 29.8094 153.422 29.5093 151.293 29.5093C148.236 29.5093 145.615 30.2732 143.432 31.8011C141.248 33.329 139.583 35.4025 138.436 38.0217C137.29 40.5863 136.717 43.5056 136.717 46.7796C136.717 50.1082 137.29 53.0821 138.436 55.7012C139.583 58.2659 141.248 60.3121 143.432 61.84C145.615 63.3133 148.236 64.0499 151.293 64.0499C153.422 64.0499 155.415 63.7498 157.271 63.1496C159.127 62.4948 160.792 61.458 162.267 60.0393C163.741 58.566 164.996 56.6562 166.033 54.3098L178.071 56.7653C176.106 62.8767 172.803 67.624 168.163 71.0072C163.522 74.3357 157.899 76 151.293 76C147.035 76 143.132 75.2906 139.583 73.8719C136.034 72.4532 132.977 70.4615 130.411 67.8969C127.9 65.2777 125.935 62.1947 124.515 58.6478C123.15 55.0464 122.468 51.0904 122.468 46.7796Z"/>
<path d="M201.915 75.4271L201.014 70.3524C199.54 72.0439 198.011 73.4081 196.428 74.4449C194.9 75.4816 192.825 76 190.205 76C187.802 76 185.591 75.5635 183.571 74.6904C181.606 73.7628 180.023 72.4259 178.822 70.6798C177.621 68.9336 177.02 66.8055 177.02 64.2955C177.02 60.9124 178.221 58.1295 180.623 55.9468C183.025 53.7641 186.82 52.3727 192.006 51.7725L201.014 50.7903V48.4166C201.014 47.6527 200.632 46.8887 199.868 46.1248C199.103 45.3063 197.929 44.8971 196.346 44.8971C194.927 44.8971 193.699 45.279 192.661 46.043C191.624 46.8069 190.914 47.8709 190.532 49.2351L179.149 45.1426C180.405 41.4321 182.534 38.6492 185.537 36.7939C188.539 34.8841 192.306 33.9292 196.838 33.9292C202.57 33.9292 206.937 35.3479 209.94 38.1854C212.943 41.0228 214.444 44.9244 214.444 49.8899V75.4271H201.915ZM201.014 58.3204L194.627 59.0571C193.371 59.2208 192.416 59.63 191.76 60.2848C191.105 60.9396 190.778 61.7308 190.778 62.6585C190.778 63.5861 191.16 64.35 191.924 64.9503C192.743 65.5505 193.862 65.8506 195.282 65.8506C196.428 65.8506 197.411 65.6051 198.23 65.114C199.103 64.5683 199.786 63.8044 200.277 62.8222C200.768 61.84 201.014 60.6122 201.014 59.1389V58.3204Z"/>
<path d="M215.609 16.4952H229.039V75.4271H215.609V16.4952Z"/>
<path d="M230.57 16.4952H244V75.4271H230.57V16.4952Z"/>
<path d="M4 45.1426C4 40.8864 4.68242 36.9849 6.04726 33.4381C7.46669 29.8367 9.43205 26.7264 11.9434 24.1072C14.5092 21.488 17.5665 19.4691 21.1151 18.0503C24.6636 16.6316 28.5671 15.9222 32.8254 15.9222C39.2674 15.9222 44.7813 17.5319 49.3672 20.7514C53.953 23.9162 57.2286 28.2816 59.194 33.8473L46.8286 36.5484C45.8459 34.5294 44.6721 32.8924 43.3073 31.6374C41.9425 30.3278 40.3866 29.3729 38.6396 28.7727C36.8926 28.1724 34.9545 27.8723 32.8254 27.8723C29.7681 27.8723 27.1476 28.6362 24.9639 30.1641C22.7802 31.692 21.1151 33.7655 19.9686 36.3847C18.8221 38.9493 18.2489 41.8686 18.2489 45.1426C18.2489 48.4712 18.8221 51.4451 19.9686 54.0642C21.1151 56.6289 22.7802 58.6751 24.9639 60.203C27.1476 61.6763 29.7681 62.4129 32.8254 62.4129C34.9545 62.4129 36.9472 62.1128 38.8033 61.5126C40.6595 60.8578 42.3246 59.821 43.7987 58.4023C45.2727 56.929 46.5283 55.0192 47.5656 52.6728L59.6035 55.1283C57.6381 61.2398 54.3352 65.987 49.6947 69.3702C45.0543 72.6987 39.4312 74.363 32.8254 74.363C28.5671 74.363 24.6636 73.6536 21.1151 72.2349C17.5665 70.8162 14.5092 68.8245 11.9434 66.2599C9.43205 63.6407 7.46669 60.5577 6.04726 57.0108C4.68242 53.4094 4 49.4534 4 45.1426Z"/>
<path d="M83.447 73.7901L82.5462 68.7154C81.0721 70.4069 79.5435 71.7711 77.9603 72.8079C76.4317 73.8446 74.3571 74.363 71.7367 74.363C69.3345 74.363 67.1235 73.9265 65.1035 73.0534C63.1382 72.1258 61.555 70.7889 60.3539 69.0428C59.1529 67.2966 58.5523 65.1685 58.5523 62.6585C58.5523 59.2754 59.7534 56.4925 62.1555 54.3098C64.5576 52.1271 68.3519 50.7357 73.5382 50.1355L82.5462 49.1533V46.7796C82.5462 46.0157 82.164 45.2518 81.3997 44.4878C80.6354 43.6693 79.4616 43.2601 77.8784 43.2601C76.459 43.2601 75.2306 43.642 74.1934 44.406C73.1561 45.1699 72.4464 46.234 72.0642 47.5981L60.6815 43.5056C61.9371 39.7951 64.0663 37.0122 67.0689 35.1569C70.0716 33.2471 73.8385 32.2922 78.3698 32.2922C84.1021 32.2922 88.4696 33.7109 91.4722 36.5484C94.4748 39.3858 95.9762 43.2874 95.9762 48.2529V73.7901H83.447ZM82.5462 56.6834L76.1587 57.4201C74.9031 57.5838 73.9477 57.993 73.2926 58.6478C72.6375 59.3026 72.3099 60.0938 72.3099 61.0215C72.3099 61.9491 72.692 62.7131 73.4563 63.3133C74.2752 63.9135 75.3944 64.2136 76.8138 64.2136C77.9603 64.2136 78.943 63.9681 79.7619 63.477C80.6354 62.9313 81.3178 62.1674 81.8092 61.1852C82.3005 60.203 82.5462 58.9752 82.5462 57.5019V56.6834Z"/>
<path d="M100.662 32.8651V21.4062H114.338V32.8651H122.118V44.8152H114.338V57.5838C114.338 59.1117 114.748 60.203 115.566 60.8578C116.385 61.5126 117.395 61.8673 118.596 61.9218C119.797 61.9218 120.999 61.7854 122.2 61.5126V73.299C119.142 73.8446 116.303 74.0083 113.683 73.7901C111.063 73.5718 108.77 72.8897 106.804 71.7438C104.893 70.5434 103.392 68.7972 102.3 66.5054C101.208 64.1591 100.662 61.1852 100.662 57.5838V44.8152H94.8483V32.8651H100.662Z"/>
</mask>
<path d="M46.2741 4.6059C47.4897 3.44532 49.5064 4.03521 49.9042 5.6677L54.827 25.8698C55.2248 27.5023 53.7053 28.953 52.092 28.4811L32.1264 22.6412C30.513 22.1693 30.0158 20.1287 31.2314 18.9681L46.2741 4.6059Z" fill="#0A0A0A"/>
<path d="M20.1609 4.6059C18.9453 3.44532 16.9286 4.03521 16.5308 5.6677L11.608 25.8698C11.2102 27.5023 12.7297 28.953 14.3431 28.4811L34.3086 22.6412C35.922 22.1693 36.4192 20.1287 35.2037 18.9681L20.1609 4.6059Z" fill="#0A0A0A"/>
<path d="M47.3036 6.66479C47.6075 6.37464 48.1117 6.52211 48.2112 6.93024L53.1718 27.2876C53.2713 27.6957 52.8914 28.0584 52.4881 27.9404L32.369 22.0557C31.9657 21.9377 31.8414 21.4275 32.1453 21.1374L47.3036 6.66479Z" fill="#F9627D"/>
<path d="M19.422 6.66479C19.1181 6.37464 18.6139 6.52211 18.5144 6.93024L13.5538 27.2876C13.4543 27.6957 13.8342 28.0584 14.2375 27.9404L34.3566 22.0557C34.7599 21.9377 34.8842 21.4275 34.5803 21.1374L19.422 6.66479Z" fill="#F9627D"/>
<path d="M122.468 46.7796C122.468 42.5234 123.15 38.6219 124.515 35.0751C125.935 31.4737 127.9 28.3634 130.411 25.7442C132.977 23.125 136.034 21.1061 139.583 19.6873C143.132 18.2686 147.035 17.5592 151.293 17.5592C157.735 17.5592 163.249 19.1689 167.835 22.3884C172.421 25.5532 175.697 29.9185 177.662 35.4843L165.296 38.1854C164.314 36.1664 163.14 34.5294 161.775 33.2744C160.41 31.9648 158.854 31.0099 157.107 30.4097C155.36 29.8094 153.422 29.5093 151.293 29.5093C148.236 29.5093 145.615 30.2732 143.432 31.8011C141.248 33.329 139.583 35.4025 138.436 38.0217C137.29 40.5863 136.717 43.5056 136.717 46.7796C136.717 50.1082 137.29 53.0821 138.436 55.7012C139.583 58.2659 141.248 60.3121 143.432 61.84C145.615 63.3133 148.236 64.0499 151.293 64.0499C153.422 64.0499 155.415 63.7498 157.271 63.1496C159.127 62.4948 160.792 61.458 162.267 60.0393C163.741 58.566 164.996 56.6562 166.033 54.3098L178.071 56.7653C176.106 62.8767 172.803 67.624 168.163 71.0072C163.522 74.3357 157.899 76 151.293 76C147.035 76 143.132 75.2906 139.583 73.8719C136.034 72.4532 132.977 70.4615 130.411 67.8969C127.9 65.2777 125.935 62.1947 124.515 58.6478C123.15 55.0464 122.468 51.0904 122.468 46.7796Z" fill="#0A0A0A"/>
<path d="M201.915 75.4271L201.014 70.3524C199.54 72.0439 198.011 73.4081 196.428 74.4449C194.9 75.4816 192.825 76 190.205 76C187.802 76 185.591 75.5635 183.571 74.6904C181.606 73.7628 180.023 72.4259 178.822 70.6798C177.621 68.9336 177.02 66.8055 177.02 64.2955C177.02 60.9124 178.221 58.1295 180.623 55.9468C183.025 53.7641 186.82 52.3727 192.006 51.7725L201.014 50.7903V48.4166C201.014 47.6527 200.632 46.8887 199.868 46.1248C199.103 45.3063 197.929 44.8971 196.346 44.8971C194.927 44.8971 193.699 45.279 192.661 46.043C191.624 46.8069 190.914 47.8709 190.532 49.2351L179.149 45.1426C180.405 41.4321 182.534 38.6492 185.537 36.7939C188.539 34.8841 192.306 33.9292 196.838 33.9292C202.57 33.9292 206.937 35.3479 209.94 38.1854C212.943 41.0228 214.444 44.9244 214.444 49.8899V75.4271H201.915ZM201.014 58.3204L194.627 59.0571C193.371 59.2208 192.416 59.63 191.76 60.2848C191.105 60.9396 190.778 61.7308 190.778 62.6585C190.778 63.5861 191.16 64.35 191.924 64.9503C192.743 65.5505 193.862 65.8506 195.282 65.8506C196.428 65.8506 197.411 65.6051 198.23 65.114C199.103 64.5683 199.786 63.8044 200.277 62.8222C200.768 61.84 201.014 60.6122 201.014 59.1389V58.3204Z" fill="#0A0A0A"/>
<path d="M215.609 16.4952H229.039V75.4271H215.609V16.4952Z" fill="#0A0A0A"/>
<path d="M230.57 16.4952H244V75.4271H230.57V16.4952Z" fill="#0A0A0A"/>
<path d="M4 45.1426C4 40.8864 4.68242 36.9849 6.04726 33.4381C7.46669 29.8367 9.43205 26.7264 11.9434 24.1072C14.5092 21.488 17.5665 19.4691 21.1151 18.0503C24.6636 16.6316 28.5671 15.9222 32.8254 15.9222C39.2674 15.9222 44.7813 17.5319 49.3672 20.7514C53.953 23.9162 57.2286 28.2816 59.194 33.8473L46.8286 36.5484C45.8459 34.5294 44.6721 32.8924 43.3073 31.6374C41.9425 30.3278 40.3866 29.3729 38.6396 28.7727C36.8926 28.1724 34.9545 27.8723 32.8254 27.8723C29.7681 27.8723 27.1476 28.6362 24.9639 30.1641C22.7802 31.692 21.1151 33.7655 19.9686 36.3847C18.8221 38.9493 18.2489 41.8686 18.2489 45.1426C18.2489 48.4712 18.8221 51.4451 19.9686 54.0642C21.1151 56.6289 22.7802 58.6751 24.9639 60.203C27.1476 61.6763 29.7681 62.4129 32.8254 62.4129C34.9545 62.4129 36.9472 62.1128 38.8033 61.5126C40.6595 60.8578 42.3246 59.821 43.7987 58.4023C45.2727 56.929 46.5283 55.0192 47.5656 52.6728L59.6035 55.1283C57.6381 61.2398 54.3352 65.987 49.6947 69.3702C45.0543 72.6987 39.4312 74.363 32.8254 74.363C28.5671 74.363 24.6636 73.6536 21.1151 72.2349C17.5665 70.8162 14.5092 68.8245 11.9434 66.2599C9.43205 63.6407 7.46669 60.5577 6.04726 57.0108C4.68242 53.4094 4 49.4534 4 45.1426Z" fill="#0A0A0A"/>
<path d="M83.447 73.7901L82.5462 68.7154C81.0721 70.4069 79.5435 71.7711 77.9603 72.8079C76.4317 73.8446 74.3571 74.363 71.7367 74.363C69.3345 74.363 67.1235 73.9265 65.1035 73.0534C63.1382 72.1258 61.555 70.7889 60.3539 69.0428C59.1529 67.2966 58.5523 65.1685 58.5523 62.6585C58.5523 59.2754 59.7534 56.4925 62.1555 54.3098C64.5576 52.1271 68.3519 50.7357 73.5382 50.1355L82.5462 49.1533V46.7796C82.5462 46.0157 82.164 45.2518 81.3997 44.4878C80.6354 43.6693 79.4616 43.2601 77.8784 43.2601C76.459 43.2601 75.2306 43.642 74.1934 44.406C73.1561 45.1699 72.4464 46.234 72.0642 47.5981L60.6815 43.5056C61.9371 39.7951 64.0663 37.0122 67.0689 35.1569C70.0716 33.2471 73.8385 32.2922 78.3698 32.2922C84.1021 32.2922 88.4696 33.7109 91.4722 36.5484C94.4748 39.3858 95.9762 43.2874 95.9762 48.2529V73.7901H83.447ZM82.5462 56.6834L76.1587 57.4201C74.9031 57.5838 73.9477 57.993 73.2926 58.6478C72.6375 59.3026 72.3099 60.0938 72.3099 61.0215C72.3099 61.9491 72.692 62.7131 73.4563 63.3133C74.2752 63.9135 75.3944 64.2136 76.8138 64.2136C77.9603 64.2136 78.943 63.9681 79.7619 63.477C80.6354 62.9313 81.3178 62.1674 81.8092 61.1852C82.3005 60.203 82.5462 58.9752 82.5462 57.5019V56.6834Z" fill="#0A0A0A"/>
<path d="M100.662 32.8651V21.4062H114.338V32.8651H122.118V44.8152H114.338V57.5838C114.338 59.1117 114.748 60.203 115.566 60.8578C116.385 61.5126 117.395 61.8673 118.596 61.9218C119.797 61.9218 120.999 61.7854 122.2 61.5126V73.299C119.142 73.8446 116.303 74.0083 113.683 73.7901C111.063 73.5718 108.77 72.8897 106.804 71.7438C104.893 70.5434 103.392 68.7972 102.3 66.5054C101.208 64.1591 100.662 61.1852 100.662 57.5838V44.8152H94.8483V32.8651H100.662Z" fill="#0A0A0A"/>
<path d="M46.2741 4.6059C47.4897 3.44532 49.5064 4.03521 49.9042 5.6677L54.827 25.8698C55.2248 27.5023 53.7053 28.953 52.092 28.4811L32.1264 22.6412C30.513 22.1693 30.0158 20.1287 31.2314 18.9681L46.2741 4.6059Z" stroke="#FCFFFA" stroke-width="8" mask="url(#path-1-outside-1_2_1283)"/>
<path d="M20.1609 4.6059C18.9453 3.44532 16.9286 4.03521 16.5308 5.6677L11.608 25.8698C11.2102 27.5023 12.7297 28.953 14.3431 28.4811L34.3086 22.6412C35.922 22.1693 36.4192 20.1287 35.2037 18.9681L20.1609 4.6059Z" stroke="#FCFFFA" stroke-width="8" mask="url(#path-1-outside-1_2_1283)"/>
<path d="M47.3036 6.66479C47.6075 6.37464 48.1117 6.52211 48.2112 6.93024L53.1718 27.2876C53.2713 27.6957 52.8914 28.0584 52.4881 27.9404L32.369 22.0557C31.9657 21.9377 31.8414 21.4275 32.1453 21.1374L47.3036 6.66479Z" stroke="#FCFFFA" stroke-width="8" mask="url(#path-1-outside-1_2_1283)"/>
<path d="M19.422 6.66479C19.1181 6.37464 18.6139 6.52211 18.5144 6.93024L13.5538 27.2876C13.4543 27.6957 13.8342 28.0584 14.2375 27.9404L34.3566 22.0557C34.7599 21.9377 34.8842 21.4275 34.5803 21.1374L19.422 6.66479Z" stroke="#FCFFFA" stroke-width="8" mask="url(#path-1-outside-1_2_1283)"/>
<path d="M122.468 46.7796C122.468 42.5234 123.15 38.6219 124.515 35.0751C125.935 31.4737 127.9 28.3634 130.411 25.7442C132.977 23.125 136.034 21.1061 139.583 19.6873C143.132 18.2686 147.035 17.5592 151.293 17.5592C157.735 17.5592 163.249 19.1689 167.835 22.3884C172.421 25.5532 175.697 29.9185 177.662 35.4843L165.296 38.1854C164.314 36.1664 163.14 34.5294 161.775 33.2744C160.41 31.9648 158.854 31.0099 157.107 30.4097C155.36 29.8094 153.422 29.5093 151.293 29.5093C148.236 29.5093 145.615 30.2732 143.432 31.8011C141.248 33.329 139.583 35.4025 138.436 38.0217C137.29 40.5863 136.717 43.5056 136.717 46.7796C136.717 50.1082 137.29 53.0821 138.436 55.7012C139.583 58.2659 141.248 60.3121 143.432 61.84C145.615 63.3133 148.236 64.0499 151.293 64.0499C153.422 64.0499 155.415 63.7498 157.271 63.1496C159.127 62.4948 160.792 61.458 162.267 60.0393C163.741 58.566 164.996 56.6562 166.033 54.3098L178.071 56.7653C176.106 62.8767 172.803 67.624 168.163 71.0072C163.522 74.3357 157.899 76 151.293 76C147.035 76 143.132 75.2906 139.583 73.8719C136.034 72.4532 132.977 70.4615 130.411 67.8969C127.9 65.2777 125.935 62.1947 124.515 58.6478C123.15 55.0464 122.468 51.0904 122.468 46.7796Z" stroke="#FCFFFA" stroke-width="8" mask="url(#path-1-outside-1_2_1283)"/>
<path d="M201.915 75.4271L201.014 70.3524C199.54 72.0439 198.011 73.4081 196.428 74.4449C194.9 75.4816 192.825 76 190.205 76C187.802 76 185.591 75.5635 183.571 74.6904C181.606 73.7628 180.023 72.4259 178.822 70.6798C177.621 68.9336 177.02 66.8055 177.02 64.2955C177.02 60.9124 178.221 58.1295 180.623 55.9468C183.025 53.7641 186.82 52.3727 192.006 51.7725L201.014 50.7903V48.4166C201.014 47.6527 200.632 46.8887 199.868 46.1248C199.103 45.3063 197.929 44.8971 196.346 44.8971C194.927 44.8971 193.699 45.279 192.661 46.043C191.624 46.8069 190.914 47.8709 190.532 49.2351L179.149 45.1426C180.405 41.4321 182.534 38.6492 185.537 36.7939C188.539 34.8841 192.306 33.9292 196.838 33.9292C202.57 33.9292 206.937 35.3479 209.94 38.1854C212.943 41.0228 214.444 44.9244 214.444 49.8899V75.4271H201.915ZM201.014 58.3204L194.627 59.0571C193.371 59.2208 192.416 59.63 191.76 60.2848C191.105 60.9396 190.778 61.7308 190.778 62.6585C190.778 63.5861 191.16 64.35 191.924 64.9503C192.743 65.5505 193.862 65.8506 195.282 65.8506C196.428 65.8506 197.411 65.6051 198.23 65.114C199.103 64.5683 199.786 63.8044 200.277 62.8222C200.768 61.84 201.014 60.6122 201.014 59.1389V58.3204Z" stroke="#FCFFFA" stroke-width="8" mask="url(#path-1-outside-1_2_1283)"/>
<path d="M215.609 16.4952H229.039V75.4271H215.609V16.4952Z" stroke="#FCFFFA" stroke-width="8" mask="url(#path-1-outside-1_2_1283)"/>
<path d="M230.57 16.4952H244V75.4271H230.57V16.4952Z" stroke="#FCFFFA" stroke-width="8" mask="url(#path-1-outside-1_2_1283)"/>
<path d="M4 45.1426C4 40.8864 4.68242 36.9849 6.04726 33.4381C7.46669 29.8367 9.43205 26.7264 11.9434 24.1072C14.5092 21.488 17.5665 19.4691 21.1151 18.0503C24.6636 16.6316 28.5671 15.9222 32.8254 15.9222C39.2674 15.9222 44.7813 17.5319 49.3672 20.7514C53.953 23.9162 57.2286 28.2816 59.194 33.8473L46.8286 36.5484C45.8459 34.5294 44.6721 32.8924 43.3073 31.6374C41.9425 30.3278 40.3866 29.3729 38.6396 28.7727C36.8926 28.1724 34.9545 27.8723 32.8254 27.8723C29.7681 27.8723 27.1476 28.6362 24.9639 30.1641C22.7802 31.692 21.1151 33.7655 19.9686 36.3847C18.8221 38.9493 18.2489 41.8686 18.2489 45.1426C18.2489 48.4712 18.8221 51.4451 19.9686 54.0642C21.1151 56.6289 22.7802 58.6751 24.9639 60.203C27.1476 61.6763 29.7681 62.4129 32.8254 62.4129C34.9545 62.4129 36.9472 62.1128 38.8033 61.5126C40.6595 60.8578 42.3246 59.821 43.7987 58.4023C45.2727 56.929 46.5283 55.0192 47.5656 52.6728L59.6035 55.1283C57.6381 61.2398 54.3352 65.987 49.6947 69.3702C45.0543 72.6987 39.4312 74.363 32.8254 74.363C28.5671 74.363 24.6636 73.6536 21.1151 72.2349C17.5665 70.8162 14.5092 68.8245 11.9434 66.2599C9.43205 63.6407 7.46669 60.5577 6.04726 57.0108C4.68242 53.4094 4 49.4534 4 45.1426Z" stroke="#FCFFFA" stroke-width="8" mask="url(#path-1-outside-1_2_1283)"/>
<path d="M83.447 73.7901L82.5462 68.7154C81.0721 70.4069 79.5435 71.7711 77.9603 72.8079C76.4317 73.8446 74.3571 74.363 71.7367 74.363C69.3345 74.363 67.1235 73.9265 65.1035 73.0534C63.1382 72.1258 61.555 70.7889 60.3539 69.0428C59.1529 67.2966 58.5523 65.1685 58.5523 62.6585C58.5523 59.2754 59.7534 56.4925 62.1555 54.3098C64.5576 52.1271 68.3519 50.7357 73.5382 50.1355L82.5462 49.1533V46.7796C82.5462 46.0157 82.164 45.2518 81.3997 44.4878C80.6354 43.6693 79.4616 43.2601 77.8784 43.2601C76.459 43.2601 75.2306 43.642 74.1934 44.406C73.1561 45.1699 72.4464 46.234 72.0642 47.5981L60.6815 43.5056C61.9371 39.7951 64.0663 37.0122 67.0689 35.1569C70.0716 33.2471 73.8385 32.2922 78.3698 32.2922C84.1021 32.2922 88.4696 33.7109 91.4722 36.5484C94.4748 39.3858 95.9762 43.2874 95.9762 48.2529V73.7901H83.447ZM82.5462 56.6834L76.1587 57.4201C74.9031 57.5838 73.9477 57.993 73.2926 58.6478C72.6375 59.3026 72.3099 60.0938 72.3099 61.0215C72.3099 61.9491 72.692 62.7131 73.4563 63.3133C74.2752 63.9135 75.3944 64.2136 76.8138 64.2136C77.9603 64.2136 78.943 63.9681 79.7619 63.477C80.6354 62.9313 81.3178 62.1674 81.8092 61.1852C82.3005 60.203 82.5462 58.9752 82.5462 57.5019V56.6834Z" stroke="#FCFFFA" stroke-width="8" mask="url(#path-1-outside-1_2_1283)"/>
<path d="M100.662 32.8651V21.4062H114.338V32.8651H122.118V44.8152H114.338V57.5838C114.338 59.1117 114.748 60.203 115.566 60.8578C116.385 61.5126 117.395 61.8673 118.596 61.9218C119.797 61.9218 120.999 61.7854 122.2 61.5126V73.299C119.142 73.8446 116.303 74.0083 113.683 73.7901C111.063 73.5718 108.77 72.8897 106.804 71.7438C104.893 70.5434 103.392 68.7972 102.3 66.5054C101.208 64.1591 100.662 61.1852 100.662 57.5838V44.8152H94.8483V32.8651H100.662Z" stroke="#FCFFFA" stroke-width="8" mask="url(#path-1-outside-1_2_1283)"/>
</svg>
