<svg width="64" height="64" viewBox="0 0 64 64" fill="none" xmlns="http://www.w3.org/2000/svg">
<path d="M45.3333 37.3333V5.33331V37.3333Z" fill="#F9627D"/>
<path d="M24 48.32L26.6666 37.3333H11.12C10.292 37.3333 9.47538 37.1405 8.73482 36.7703C7.99425 36.4 7.35007 35.8624 6.85329 35.2C6.3565 34.5376 6.02076 33.7687 5.87265 32.954C5.72454 32.1394 5.76812 31.3015 5.99995 30.5066L12.2133 9.17331C12.5364 8.0655 13.2101 7.09236 14.1333 6.39998C15.0565 5.7076 16.1793 5.33331 17.3333 5.33331H53.3333C54.7478 5.33331 56.1043 5.89522 57.1045 6.89541C58.1047 7.8956 58.6666 9.25216 58.6666 10.6666V32C58.6666 33.4145 58.1047 34.771 57.1045 35.7712C56.1043 36.7714 54.7478 37.3333 53.3333 37.3333H45.9733C44.9811 37.3338 44.0087 37.6111 43.1654 38.1341C42.3222 38.657 41.6415 39.4047 41.2 40.2933L32 58.6666C30.7424 58.6511 29.5047 58.3515 28.3791 57.7904C27.2536 57.2292 26.2695 56.421 25.5002 55.4261C24.7309 54.4312 24.1964 53.2753 23.9367 52.0448C23.6769 50.8143 23.6985 49.541 24 48.32Z" fill="#F9627D"/>
<path d="M45.3333 37.3333V5.33331M24 48.32L26.6666 37.3333H11.12C10.292 37.3333 9.47538 37.1405 8.73482 36.7703C7.99425 36.4 7.35007 35.8624 6.85329 35.2C6.3565 34.5376 6.02076 33.7687 5.87265 32.954C5.72454 32.1394 5.76812 31.3015 5.99995 30.5066L12.2133 9.17331C12.5364 8.0655 13.2101 7.09236 14.1333 6.39998C15.0565 5.7076 16.1793 5.33331 17.3333 5.33331H53.3333C54.7478 5.33331 56.1043 5.89522 57.1045 6.89541C58.1047 7.8956 58.6666 9.25216 58.6666 10.6666V32C58.6666 33.4145 58.1047 34.771 57.1045 35.7712C56.1043 36.7714 54.7478 37.3333 53.3333 37.3333H45.9733C44.9811 37.3338 44.0087 37.6111 43.1654 38.1341C42.3222 38.657 41.6415 39.4047 41.2 40.2933L32 58.6666C30.7424 58.6511 29.5047 58.3515 28.3791 57.7904C27.2536 57.2292 26.2695 56.421 25.5002 55.4261C24.7309 54.4312 24.1964 53.2753 23.9367 52.0448C23.6769 50.8143 23.6985 49.541 24 48.32Z" stroke="#09090B" stroke-width="5" stroke-linecap="round" stroke-linejoin="round"/>
</svg>
